<?xml version="1.0" encoding="UTF-8"?>
<svg xmlns="http://www.w3.org/2000/svg" viewBox="0 0 2048 1952.76">
  <defs>
    <style>
      .cls-1 {
        fill: #656569;
      }

      .cls-2 {
        fill: #d32027;
      }

      .cls-3 {
        fill: #fff;
      }

      .cls-4 {
        fill: #33353b;
      }

      .cls-5 {
        fill: none;
        stroke: #b0adb0;
        stroke-miterlimit: 10;
      }

      .cls-6 {
        fill: #b0adb0;
      }

      .cls-7 {
        fill: #79c143;
      }

      .cls-8 {
        fill: #575548;
      }
    </style>
  </defs>
  <g id="Body_copy" data-name="Body copy">
    <path class="cls-4" d="M1709.92,1015.63v-58.01h171.99v-113.98h-58.04v-14.18h57.98v-299.82h-115.84v56.01h-14v-84h-170.02v-58.01h70.02v-228h-285.99v56.01h-114V115.63h-176.01V5.63h-127.99v110h-152v156.01h-230v-56.01h-283.99v172h70v56h-186v114h0v171.99h172v58.01h-56.01v114h70.01v56.01h-69.96v143.99h269.95v-58.18h14v145.32h-56v226.87h228v134h-55.99v209l245.99,86.21v99.79l5.01,5.99h185.99l4.01-5.99v-110.82c20.58-7.55,33.63-18.07,33.63-18.07l139.36-91.14v-10.97h70.02v-155h-56v-87h227.92v-228h228.04v-172h-69.98v-56h13.94ZM1766,643.59v200.04h-228.01v-114.02h14.01v100h199.99v-186.03h14ZM1496,443.63v58.01h-71.99v113.99h228.01v55.99h-228.01v144h-114v-57.99h-143.99v185.98h30v14.03h-60.03v-.02h-56v-7.99h52.02v-106h-66.02v-56.99h44.03v-115.01h-58.01v-55.99h144.01v-172h114v-58h156v-56h16.01v114h13.99ZM910.01,477.82v-92.19l58.97-111.03h109.97l59.06,110.04v172.99h-228.01v-79.81ZM438,387.63h14v-57.99h14v57.99h272v56h113.99v129.11h0v42.89h144.01v55.99h-86.01v58h-14.01v-43.99h-157.99v43.99h-114.01v-17.95h0v-96.04h-58.01v-28.02h58v-85.98h-171.99v-58h-14v-56ZM282,557.63h228.02v58h-214.02v56h-14.01v-114ZM623.9,1287.63h58.1v-330h-244v-56.01h244.01v-116h56v44.01h72.98l41.96-44.01h34.21v.16h94.86v57.84h-72.01v172.01h55.99v56h-55.99v113.95h55.99v133.56h.03v38.48h-114.02v-55.99h-228.1v-14ZM1196,1624.69v18.94h-343.99v-94h-.08v-132.06h12.08v54.06h273.99v-172h58v325.06ZM1595.99,1071.63v57.97h-58.07v-57.97h-171.92v285.99h-56v-113.99h-230.03v-58.05h56v-170.96h12.03v57.02h162v-114h-59.01v-86.01h42.33s72.66,0,72.66,0v85.99h118.2c1.21.93,106.83,58.01,106.83,58.01h18.99v56h-14Z"/>
  </g>
  <g id="Bombsite">
    <rect class="cls-8" x="1552.01" y="671.63" width="200.08" height="158.13"/>
    <polygon class="cls-8" points="513.99 815.29 513.99 802.99 543.46 802.99 543.46 714.99 513.99 714.99 513.99 701.74 569.6 701.74 569.6 673.63 513.99 673.63 485.73 673.63 399.77 673.63 399.77 729.91 427.99 729.91 427.99 787.11 399.67 787.11 399.67 844.65 509.94 844.65 513.99 844.65 569.98 844.65 569.98 815.29 513.99 815.29"/>
  </g>
  <g id="Lines">
    <path class="cls-6" d="M1050.38,1919.83l23.47,19.9v10.94h-46.94v-10.94l23.47-19.9M1050.38,1918.52l-24.47,20.74v12.41h48.94v-12.41l-24.47-20.74h0Z"/>
    <path class="cls-6" d="M1034.81,1720.66l14.58,25.98-14.58,25.98h-29.11l-14.58-25.98,14.58-25.98h29.11M1035.4,1719.66h-30.28l-15.14,26.98,15.14,26.98h30.28l15.14-26.98-15.14-26.98h0Z"/>
    <polygon class="cls-5" points="863.28 1787.36 845.35 1780.99 837.96 1801.78 827.62 1810.25 856.91 1820.45 855.9 1808.15 863.28 1787.36"/>
    <polygon class="cls-5" points="1208.51 1745.81 1194.43 1755.13 1206.24 1771.75 1207.27 1783.23 1229.84 1768.47 1220.33 1762.43 1208.51 1745.81"/>
    <path class="cls-6" d="M1115.99,1643.6v11h-11.98v-11h11.98M1116.99,1642.6h-13.98v13h13.98v-13h0Z"/>
    <path class="cls-6" d="M687.99,1600.63v7.98h-6.02v-7.98h6.02M688.99,1599.63h-8.02v9.98h8.02v-9.98h0Z"/>
    <path class="cls-6" d="M1221.99,1444.63v55.99h-26.03v-55.99h26.03M1222.99,1443.63h-28.03v57.99h28.03v-57.99h0Z"/>
    <path class="cls-6" d="M1465,1444.63v27.03h-26v-27.03h26M1466,1443.63h-28v29.03h28v-29.03h0Z"/>
    <path class="cls-6" d="M1394.99,1330.63v25.99h-29.03v-25.99h29.03M1395.99,1329.63h-31.03v27.99h31.03v-27.99h0Z"/>
    <path class="cls-6" d="M1138.03,1441.63v30.06h-113.03v-30.06h113.03M1139.03,1440.63h-115.03v32.06h115.03v-32.06h0Z"/>
    <path class="cls-6" d="M1015.52,1441.63c4.13,0,7.48,3.36,7.48,7.48s-3.36,7.48-7.48,7.48-7.48-3.36-7.48-7.48,3.36-7.48,7.48-7.48M1015.52,1440.63c-4.69,0-8.48,3.8-8.48,8.48s3.8,8.48,8.48,8.48,8.48-3.8,8.48-8.48-3.8-8.48-8.48-8.48h0Z"/>
    <path class="cls-6" d="M852.05,1301.58v27.05h-27.05v-27.05h27.05M853.05,1300.58h-29.05v29.05h29.05v-29.05h0Z"/>
    <path class="cls-6" d="M581,1402.64v13.03h-27.99v-13.03h27.99M582,1401.64h-29.99v15.03h29.99v-15.03h0Z"/>
    <path class="cls-6" d="M994.97,1258.65v25.91h-29.02v-25.91h29.02M995.97,1257.65h-31.02v27.91h31.02v-27.91h0Z"/>
    <path class="cls-6" d="M1664.99,1216.63v27.04h-25.99v-27.04h25.99M1665.99,1215.63h-27.99v29.04h27.99v-29.04h0Z"/>
    <path class="cls-6" d="M308.99,1072.63v29.03h-26.99v-29.03h26.99M309.99,1071.63h-28.99v31.03h28.99v-31.03h0Z"/>
    <path class="cls-6" d="M480.95,957.6v28.99h-27.93v-28.99h27.93M481.95,956.6h-29.93v30.99h29.93v-30.99h0Z"/>
    <path class="cls-6" d="M481,668.63v4h-82v58h27.99v56h-27.99v59.02h81.98v3.99h-85.98v-181.01h86M482,667.63h-88v183.01h0s87.98,0,87.98,0v-5.99h-81.98v-57.02h27.99v-58h-27.99v-56h82v-6h0Z"/>
    <path class="cls-6" d="M1136,1086.63v27.97h-26.01v-27.97h26.01M1137,1085.63h-28.01v29.97h28.01v-29.97h0Z"/>
    <path class="cls-6" d="M1080,950.63v5.98s-48.01,0-48.01,0h-1v1s0,113.01,0,113.01h-5.98v-119.99h55M1080.99,949.63h-56.99v121.99h7.98v-114.01h49.02v-7.98h0Z"/>
    <path class="cls-6" d="M1044.99,1002.63v25.99h-12.01v-25.99h12.01M1045.99,1001.63h-14.01v27.99h14.01v-27.99h0Z"/>
    <path class="cls-6" d="M609,872.63v29.02h-26v-29.02h26M610,871.63h-28v31.02h28v-31.02h0Z"/>
    <path class="cls-6" d="M194.99,572.63v27.98h-29.03v-27.98h29.03M195.99,571.63h-31.03v29.98h31.03v-29.98h0Z"/>
    <path class="cls-6" d="M308.98,530.63v27.01h-25.98v-27.01h25.98M309.98,529.63h-27.98v29.01h27.98v-29.01h0Z"/>
    <path class="cls-6" d="M450.99,488.61v26h-11.99v-26h11.99M451.99,487.61h-13.99v28h13.99v-28h0Z"/>
    <path class="cls-6" d="M1052.02,645.63v14.99h-56.03v-14.99h56.03M1053.02,644.63h-58.03v16.99h58.03v-16.99h0Z"/>
    <path class="cls-6" d="M1537.95,1244.63v47.97h-26.92v-27.97h-58.02v-20h84.95M1538.95,1243.63h-86.95v22h58.02v27.97h28.92v-49.97h0Z"/>
    <path class="cls-6" d="M1737.99,902.63v54h-26.99v-54h26.99M1738.99,901.63h-28.99v56h28.99v-56h0Z"/>
    <path class="cls-6" d="M1494.01,934.11l24.75,13.45-12.26,22.3-22.12-12.1-.2-.11h-.23s-.32-.03-.32-.03h-2.38s12.77-23.51,12.77-23.51M1493.61,932.76l-14.05,25.86h4.06s.28.03.28.03l23,12.57,13.22-24.06-26.51-14.4h0Z"/>
    <path class="cls-6" d="M1794.99,716.62v25.95h-29.03v-25.95h29.03M1795.99,715.62h-31.03v27.95h31.03v-27.95h0Z"/>
    <g>
      <rect class="cls-4" x="1724.5" y="730.12" width="28.02" height="27.01"/>
      <path class="cls-6" d="M1752.02,730.62v26.01h-27.02v-26.01h27.02M1753.02,729.62h-29.02v28.01h29.02v-28.01h0Z"/>
    </g>
    <g>
      <rect class="cls-4" x="1624.5" y="671.13" width="26.99" height="29.96"/>
      <path class="cls-6" d="M1650.99,671.63v28.96h-25.99v-28.96h25.99M1651.99,670.63h-27.99v30.96h27.99v-30.96h0Z"/>
    </g>
    <path class="cls-6" d="M1550.97,586.64v29.04h-25.96v-29.04h25.96M1551.97,585.64h-27.96v31.04h27.96v-31.04h0Z"/>
    <rect class="cls-6" x="221" y="556.62" width="4" height="173"/>
    <rect class="cls-6" x="451" y="501.61" width="3.99" height="56.01"/>
    <polygon class="cls-6" points="565.99 615.63 565.99 626.63 509.96 626.63 509.96 615.63 506 615.63 506 630.62 507.98 630.62 509.96 630.62 565.99 630.62 569.51 630.62 569.99 630.62 569.99 615.63 565.99 615.63"/>
    <rect class="cls-6" x="1738.83" y="901.62" width="29.15" height="3.97"/>
    <path class="cls-6" d="M568.92,702.63v111.87h-53.99v-11.03h29.04v-89.81h-29.04v-11.03h53.99M569.92,701.63h-55.99v13.03h29.04v87.81h-29.04v13.03h55.99v-113.87h0Z"/>
    <polygon class="cls-5" points="1082.3 787.15 1110.54 757.83 1110.54 787.15 1082.3 787.15"/>
    <path class="cls-6" d="M817.26,1301.59c3.46.77,5.95,3.88,5.95,7.43,0,4.2-3.41,7.61-7.61,7.61s-7.61-3.41-7.61-7.61c0-3.55,2.5-6.66,5.95-7.43h3.32M817.37,1300.59h-3.53c-3.91.81-6.85,4.28-6.85,8.43,0,4.76,3.86,8.61,8.61,8.61s8.61-3.86,8.61-8.61c0-4.15-2.94-7.62-6.85-8.43h0Z"/>
    <path class="cls-6" d="M1015.52,1457.59c4.13,0,7.48,3.2,7.48,7.13,0,3.28-2.42,6.18-5.76,6.93h-3.45c-3.34-.75-5.76-3.65-5.76-6.93,0-3.93,3.36-7.13,7.48-7.13M1015.52,1456.59c-4.69,0-8.48,3.64-8.48,8.13,0,3.89,2.85,7.13,6.65,7.93h3.67c3.8-.8,6.65-4.05,6.65-7.93,0-4.49-3.8-8.13-8.48-8.13h0Z"/>
  </g>
  <g id="Outlines">
    <path class="cls-1" d="M1075.99,5.63v110h176.01v156.01h114v-56.01h285.99v228h-70.02v58.01h170.02v84h14v-56.01h115.84v299.82h-57.98v14.18h58.05v113.98h-171.99v58.01h-13.94v56h69.98v172h-228.04v228h-227.92v87h56v155h-70.02v10.97l-139.36,91.14s-13.05,10.52-33.63,18.07v110.82l-4.02,5.99h-185.99l-5.01-5.99v-99.79l-245.99-86.21v-209h55.99v-134h-228v-226.87h56v-145.32h-14v58.18h-269.95v-143.99h69.96v-56.01h-70.01v-114h56.01v-58.01h-172v-171.99h0v-114h186v-56h-70v-172h283.99v56.01h230V115.63h152V5.63h127.99M910.01,557.63h228.01v-172.99l-59.06-110.04h-109.97l-58.97,111.03v172M1051.99,671.62h58.01v115.01h-44.03v56.99h66.02v106h-52.02v7.99h56v.02h60.03v-14.03h-30v-185.98h143.99v57.99h114v-144h228.01v-55.99h-228.01v-113.99h71.99v-58.01h-13.99v-114h-16.01v56h-156v58h-114v172h-144.01v55.99M438,443.63h14v58h171.99v85.98h-58v28.02h58.01v96.04h0v17.95h114.01v-43.99h157.99v43.99h14.01v-58h86.01v-55.99h-144.01v-42.89h0v-129.12h-113.99v-56h-272v-57.99h-14v57.99h-14v56M282,671.63h14.01v-56h214.02v-58h-228.02v114M1552.01,829.62v-100h-14.01v114.02h228.01v-200.04h-14v186.03h-199.99M738,829.63v-44.01h-56v116h-244.01v56.01h244v330h-58.1v14h228.1v55.99h114.02v-38.48h-.03v-133.56h-55.99v-113.95h55.99v-56h-55.99v-172.01h72.01v-57.84h-94.86v-.16h-34.21l-41.96,44.01h-72.98M1250.99,957.63h59.01v114h-162v-57.02h-12.03v170.96h-56v58.05h230.03v113.99h56v-285.99h171.92v57.97h58.07v-57.97h14v-56h-18.99s-105.62-57.09-106.83-58.01h-118.2v-85.99h-72.66s-42.33,0-42.33,0v86.01M864.01,1471.63v-54.06h-12.08v132.06h.08v94h343.99v-344h-58v172h-273.99M1077.04,4.58h-130.09v110h-152v156.01h-227.9v-56.01h-286.09v174.1h70v53.9h-186v116.1h0v171.99h171.99v55.91h-56.01v116.1h70.01v53.91h-69.96v146.09h272.05v-58.18h11.9v143.22h-56v228.97h228v131.9h-55.99v210.79l.7.25,245.29,85.97v99.43l.24.29,5.01,5.99.31.38h187.04l.31-.47,4.02-5.99.18-.27v-110.41c19.52-7.29,32.34-17.27,33.19-17.95l139.32-91.12.48-.31v-10.49h70.02v-157.1h-56v-84.9h227.92v-228h228.04v-174.1h-69.98v-53.9h13.94v-58.01h171.99v-116.08h-58.05v-12.08h57.98v-301.92h-117.94v56.01h-11.9v-84h-170.02v-55.91h70.02v-230.1h-288.1v56.01h-111.9V114.58h-176.01V4.58h0ZM969.61,275.65h108.71l58.64,109.25v171.68h-225.91v-170.69l58.55-110.24h0ZM1467.05,330.68h13.91v114h13.99v55.91h-71.99v116.09h228.01v53.89h-228.01v144h-111.9v-57.99h-146.09v188.08h30v11.93h-57.93l-1.05-.02h-54.95v-5.89h52.02v-108.1h-66.02v-54.89h44.03v-117.11h-58.01v-53.89h144.01v-172h114v-58h156v-56h0ZM453.05,330.68h11.9v57.99h272v56h113.99v129.11h0v42.89h144.01v53.89h-86.01v58h-11.91v-43.99h-160.09v43.99h-111.91v-16.9s0-96.04,0-96.04v-1.05h-58.01v-25.92h58v-88.08h-171.99v-58h-14v-53.9h14v-57.99h0ZM283.05,558.68h225.92v55.9h-214.02v56h-11.9v-111.9h0ZM1753.05,644.64h11.9v197.94h-225.91v-111.92h11.91v100h202.09v-186.03h0ZM853.39,786.67h32.71v.16h94.86v55.74h-72.01v174.11h55.99v53.9h-55.99v116.05h55.99v133.56h.03v36.38h-111.92v-55.99h-228.1v-11.9h58.1v-332.1h-244v-53.91h244.01v-116h53.9v44.01h74.48l.31-.33,41.65-43.68h0ZM1252.04,872.67h41.28s71.61,0,71.61,0v85.99h118.96c6.21,3.6,89.51,48.64,106.62,57.89l.23.13h18.2v53.9h-14v57.97h-55.97v-57.97h-174.02v285.99h-53.9v-113.99h-230.03v-55.95h56v-170.96h9.93v57.02h164.1v-116.1h-59.01v-83.91h0ZM1139.05,1300.68h55.9v341.9h-341.89v-94h-.08v-129.96h9.98v54.06h276.09v-172h0Z"/>
  </g>
  <g id="Callouts_copy" data-name="Callouts copy">
    <g>
      <path class="cls-3" d="M1516.77,904.24v-3.92l-4.3-6.64c-.21-.33-.3-.66-.3-1,0-.8.62-1.39,1.47-1.39.63,0,.98.23,1.37.91l3.22,5.3h.07l3.23-5.3c.37-.64.75-.91,1.34-.91.83,0,1.46.59,1.46,1.37,0,.34-.1.66-.31,1.01l-4.3,6.65v3.92c0,.97-.55,1.53-1.47,1.53s-1.47-.57-1.47-1.53Z"/>
      <path class="cls-3" d="M1523.31,902.58c0-1.9,1.46-3.01,4.08-3.16l2.64-.16v-.69c0-.98-.68-1.54-1.76-1.54-.87,0-1.4.28-2.03,1.1-.31.35-.67.53-1.13.53-.69,0-1.19-.45-1.19-1.09,0-.22.05-.43.15-.64.49-1.25,2.17-2.02,4.34-2.02,2.69,0,4.43,1.39,4.43,3.5v5.97c0,.95-.58,1.44-1.39,1.44s-1.31-.43-1.37-1.27v-.54h-.06c-.59,1.11-1.89,1.77-3.2,1.77-1.99,0-3.51-1.29-3.51-3.17ZM1530.03,901.75v-.76l-2.21.14c-1.06.08-1.67.56-1.67,1.3,0,.78.64,1.27,1.6,1.27,1.25,0,2.28-.81,2.28-1.94Z"/>
      <path class="cls-3" d="M1534.67,904.31v-7.97c0-.91.56-1.44,1.38-1.44s1.35.53,1.35,1.44v.68h.06c.27-1.3,1.13-2.07,2.18-2.07.38,0,.68.09.89.26.27.21.41.57.41,1.05,0,.45-.14.79-.41,1.03s-.68.36-1.24.37c-1.3.02-1.76.75-1.76,1.99v4.65c0,.95-.56,1.48-1.43,1.48s-1.43-.54-1.43-1.48Z"/>
      <path class="cls-3" d="M1541.22,900.34c0-3.32,1.66-5.38,4.29-5.38,1.51,0,2.69.8,3.19,1.96h.06v-4.14c0-.98.6-1.49,1.43-1.49s1.43.52,1.43,1.49v11.57c0,.95-.59,1.45-1.42,1.45s-1.44-.49-1.44-1.45v-.61h-.05c-.46,1.17-1.61,2.01-3.22,2.01-2.62,0-4.27-2.07-4.27-5.42ZM1548.78,900.36c0-1.9-.91-3.12-2.32-3.12s-2.31,1.2-2.31,3.12.88,3.11,2.31,3.11,2.32-1.19,2.32-3.11Z"/>
    </g>
    <g>
      <path class="cls-3" d="M1208.88,814.29c0-.24.07-.58.2-.94l3.85-10.48c.41-1.14,1.1-1.67,2.22-1.67s1.84.51,2.26,1.66l3.87,10.49c.14.38.19.64.19.94,0,.81-.62,1.39-1.47,1.39s-1.27-.38-1.53-1.3l-.74-2.23h-5.09l-.74,2.2c-.27.94-.71,1.33-1.49,1.33-.92,0-1.49-.54-1.49-1.39ZM1217.01,809.87l-1.87-5.77h-.07l-1.83,5.77h3.76Z"/>
      <path class="cls-3" d="M1227.19,813.95v-11.2c0-.98.55-1.54,1.47-1.54s1.47.57,1.47,1.54v10.3h5c.8,0,1.34.46,1.34,1.22s-.53,1.22-1.34,1.22h-6.47c-.93,0-1.47-.57-1.47-1.54Z"/>
      <path class="cls-3" d="M1237.75,802.25c0-.83.66-1.47,1.52-1.47s1.52.64,1.52,1.47-.66,1.47-1.52,1.47-1.52-.65-1.52-1.47ZM1237.85,814.21v-7.91c0-.93.54-1.49,1.43-1.49s1.43.57,1.43,1.49v7.91c0,.93-.55,1.48-1.43,1.48s-1.43-.56-1.43-1.48Z"/>
      <path class="cls-3" d="M1242.6,814.21v-7.97c0-.89.52-1.44,1.38-1.44s1.43.55,1.43,1.45v.59h.06c.56-1.3,1.61-2.01,3.22-2.01,2.32,0,3.63,1.46,3.63,3.92v5.47c0,.98-.6,1.48-1.43,1.48s-1.43-.51-1.43-1.48v-4.87c0-1.37-.64-2.15-1.92-2.15s-2.09.94-2.09,2.29v4.73c0,.98-.59,1.48-1.43,1.48s-1.43-.51-1.43-1.48Z"/>
      <path class="cls-3" d="M1254.19,814.21v-11.53c0-.98.6-1.49,1.43-1.49s1.43.52,1.43,1.49v6.49h.04l3.79-3.8c.38-.4.7-.57,1.13-.57.73,0,1.27.54,1.27,1.24,0,.43-.13.69-.54,1.07l-2.67,2.52,2.92,3.72c.31.42.4.67.4,1.04,0,.76-.56,1.29-1.36,1.29-.61,0-.95-.21-1.4-.89l-2.69-3.55-.91.84v2.12c0,.98-.59,1.48-1.43,1.48s-1.43-.51-1.43-1.48Z"/>
    </g>
    <g>
      <path class="cls-3" d="M1058.9,999.16c-.1-.25-.16-.53-.16-.79,0-.78.54-1.3,1.3-1.3.61,0,1.01.23,1.36.86.46,1.07,1.56,1.56,2.91,1.56,1.58,0,2.66-.76,2.66-1.8,0-.93-.66-1.46-2.43-1.82l-1.49-.29c-2.81-.56-4.19-1.9-4.19-4,0-2.58,2.25-4.29,5.38-4.29,2.58,0,4.52,1.08,5.15,2.92.07.2.11.4.11.65,0,.7-.51,1.18-1.26,1.18-.66,0-1.07-.26-1.41-.87-.47-1.06-1.38-1.5-2.59-1.5-1.46,0-2.42.68-2.42,1.72,0,.87.67,1.41,2.34,1.74l1.48.3c2.99.6,4.28,1.8,4.28,3.94,0,2.75-2.16,4.49-5.67,4.49-2.91,0-4.78-1.16-5.34-2.71Z"/>
      <path class="cls-3" d="M1072.23,993.31h-.55c-.67,0-1.1-.41-1.1-1.07s.43-1.07,1.1-1.07h.55v-1.16c0-.92.54-1.48,1.43-1.48s1.43.57,1.43,1.48v1.16h1.01c.67,0,1.09.42,1.09,1.07s-.42,1.07-1.09,1.07h-1.01v5.01c0,.74.25,1.05.87,1.1l.19.02c.7.08,1.08.37,1.08,1.04,0,.84-.82,1.27-2.02,1.27h-.1c-1.9,0-2.87-.95-2.87-2.79v-5.64Z"/>
      <path class="cls-3" d="M1078.07,998.63c0-1.9,1.46-3.01,4.08-3.16l2.64-.16v-.69c0-.98-.68-1.54-1.76-1.54-.87,0-1.4.28-2.03,1.1-.31.35-.67.53-1.13.53-.69,0-1.19-.45-1.19-1.09,0-.22.05-.43.15-.64.49-1.25,2.17-2.02,4.34-2.02,2.69,0,4.43,1.39,4.43,3.5v5.97c0,.95-.58,1.44-1.39,1.44s-1.31-.43-1.37-1.27v-.54h-.06c-.59,1.11-1.89,1.77-3.2,1.77-1.99,0-3.51-1.29-3.51-3.17ZM1084.79,997.8v-.76l-2.21.14c-1.06.08-1.67.56-1.67,1.3,0,.78.64,1.27,1.6,1.27,1.25,0,2.28-.81,2.28-1.94Z"/>
      <path class="cls-3" d="M1089.38,988.39c0-.83.66-1.47,1.52-1.47s1.52.64,1.52,1.47-.66,1.47-1.52,1.47-1.52-.65-1.52-1.47ZM1089.47,1000.35v-7.91c0-.93.54-1.49,1.43-1.49s1.43.57,1.43,1.49v7.91c0,.93-.55,1.48-1.43,1.48s-1.43-.56-1.43-1.48Z"/>
      <path class="cls-3" d="M1094.22,1000.35v-7.97c0-.91.56-1.44,1.38-1.44s1.35.53,1.35,1.44v.68h.06c.27-1.3,1.13-2.07,2.18-2.07.38,0,.68.09.89.26.27.21.41.57.41,1.05,0,.45-.14.79-.41,1.03s-.68.36-1.24.37c-1.3.02-1.76.75-1.76,1.99v4.65c0,.95-.56,1.48-1.43,1.48s-1.43-.54-1.43-1.48Z"/>
      <path class="cls-3" d="M1101.26,999.77c-.07-.19-.11-.37-.11-.53,0-.65.49-1.09,1.15-1.09.46,0,.85.21,1.24.64.56.73,1.2,1.06,2.29,1.06s1.71-.43,1.71-1.12c0-.57-.36-.87-1.39-1.09l-1.76-.37c-2.05-.44-3.09-1.48-3.09-3.04,0-2,1.73-3.29,4.44-3.29,2.17,0,3.76.99,4.1,2.17.04.15.07.28.07.42,0,.58-.36.98-1.09.98-.37,0-.78-.14-1.04-.44-.5-.63-1.06-1.12-2.09-1.12-.97,0-1.64.46-1.64,1.13,0,.55.41.91,1.46,1.13l1.73.37c2.23.47,3.14,1.29,3.14,2.85,0,2.08-1.87,3.43-4.63,3.43-2.4,0-4-.86-4.5-2.09Z"/>
    </g>
    <g>
      <path class="cls-3" d="M1538.72,333.18c0-4.54,2.59-7.29,6.64-7.29,2.64,0,4.68,1.17,5.64,3.2.2.37.29.75.29,1.1,0,.77-.52,1.27-1.3,1.27-.66,0-1.08-.29-1.41-.98-.64-1.44-1.8-2.16-3.2-2.16-2.23,0-3.66,1.87-3.66,4.83s1.42,4.86,3.67,4.86c1.48,0,2.6-.67,3.23-2.09.3-.66.67-.93,1.3-.93.83,0,1.38.53,1.38,1.31,0,.33-.08.64-.22.99-.88,1.95-2.98,3.15-5.64,3.15-4.18,0-6.72-2.73-6.72-7.29Z"/>
      <path class="cls-3" d="M1553.16,338.95v-7.97c0-.91.56-1.44,1.38-1.44s1.35.53,1.35,1.44v.68h.06c.27-1.3,1.13-2.07,2.18-2.07.38,0,.68.09.89.26.27.21.41.57.41,1.05,0,.45-.14.79-.41,1.03s-.68.36-1.24.37c-1.3.02-1.76.75-1.76,1.99v4.65c0,.95-.56,1.48-1.43,1.48s-1.43-.54-1.43-1.48Z"/>
      <path class="cls-3" d="M1559.79,337.22c0-1.9,1.46-3.01,4.08-3.16l2.64-.16v-.69c0-.98-.68-1.54-1.76-1.54-.87,0-1.4.28-2.03,1.1-.31.35-.67.53-1.13.53-.69,0-1.19-.45-1.19-1.09,0-.22.05-.43.15-.64.49-1.25,2.17-2.02,4.34-2.02,2.69,0,4.43,1.39,4.43,3.5v5.97c0,.95-.58,1.44-1.39,1.44s-1.31-.43-1.37-1.27v-.54h-.06c-.59,1.11-1.89,1.77-3.2,1.77-1.99,0-3.51-1.29-3.51-3.17ZM1566.5,336.39v-.76l-2.21.14c-1.06.08-1.67.56-1.67,1.3,0,.78.64,1.27,1.6,1.27,1.25,0,2.28-.81,2.28-1.94Z"/>
      <path class="cls-3" d="M1571.14,338.95v-7.97c0-.89.52-1.44,1.38-1.44s1.43.55,1.43,1.45v.59h.06c.56-1.3,1.61-2.01,3.22-2.01,2.32,0,3.63,1.46,3.63,3.92v5.47c0,.98-.6,1.48-1.43,1.48s-1.43-.51-1.43-1.48v-4.87c0-1.37-.64-2.15-1.92-2.15s-2.09.94-2.09,2.29v4.73c0,.98-.59,1.48-1.43,1.48s-1.43-.51-1.43-1.48Z"/>
      <path class="cls-3" d="M1582.29,335.05c0-3.37,1.96-5.51,5.06-5.51s4.96,2.03,4.96,4.87c0,.79-.45,1.24-1.24,1.24h-5.98v.13c0,1.55.94,2.57,2.38,2.57,1.04,0,1.73-.35,2.5-1.26.3-.31.56-.42.93-.42.62,0,1.11.39,1.11,1.04,0,.22-.07.46-.2.69-.69,1.29-2.31,2.05-4.34,2.05-3.27,0-5.2-2.02-5.2-5.41ZM1589.56,333.9c-.06-1.37-.94-2.26-2.19-2.26s-2.16.92-2.26,2.26h4.44Z"/>
    </g>
    <g>
      <path class="cls-3" d="M952.17,1415.48v-11.02c0-.97.55-1.53,1.47-1.53h4.66c2.65,0,4.31,1.36,4.31,3.52,0,1.54-1.15,2.83-2.65,3.06v.08c1.91.15,3.32,1.54,3.32,3.41,0,2.48-1.87,4.03-4.87,4.03h-4.77c-.93,0-1.47-.57-1.47-1.54ZM957.24,1408.79c1.57,0,2.47-.69,2.47-1.88s-.79-1.78-2.17-1.78h-2.42v3.66h2.12ZM957.66,1414.83c1.7,0,2.62-.72,2.62-2.07s-.95-2.02-2.69-2.02h-2.47v4.09h2.54Z"/>
      <path class="cls-3" d="M964.34,1411.78c0-3.39,2.05-5.45,5.19-5.45s5.19,2.05,5.19,5.45-2.02,5.47-5.19,5.47-5.19-2.03-5.19-5.47ZM971.81,1411.79c0-2.08-.9-3.28-2.29-3.28s-2.29,1.2-2.29,3.28.89,3.28,2.29,3.28,2.29-1.18,2.29-3.28Z"/>
      <path class="cls-3" d="M976.94,1408.7h-.55c-.67,0-1.1-.41-1.1-1.07s.43-1.07,1.1-1.07h.55v-1.16c0-.92.54-1.48,1.43-1.48s1.43.57,1.43,1.48v1.16h1.01c.67,0,1.09.42,1.09,1.07s-.42,1.07-1.09,1.07h-1.01v5.01c0,.74.25,1.05.87,1.1l.19.02c.7.08,1.08.37,1.08,1.04,0,.84-.82,1.27-2.02,1.27h-.1c-1.9,0-2.87-.95-2.87-2.79v-5.64Z"/>
      <path class="cls-3" d="M984.05,1408.7h-.55c-.67,0-1.1-.41-1.1-1.07s.43-1.07,1.1-1.07h.55v-1.16c0-.92.54-1.48,1.43-1.48s1.43.57,1.43,1.48v1.16h1.01c.67,0,1.09.42,1.09,1.07s-.42,1.07-1.09,1.07h-1.01v5.01c0,.74.25,1.05.87,1.1l.19.02c.7.08,1.08.37,1.08,1.04,0,.84-.82,1.27-2.02,1.27h-.1c-1.9,0-2.87-.95-2.87-2.79v-5.64Z"/>
      <path class="cls-3" d="M989.87,1411.78c0-3.39,2.05-5.45,5.19-5.45s5.19,2.05,5.19,5.45-2.02,5.47-5.19,5.47-5.19-2.03-5.19-5.47ZM997.34,1411.79c0-2.08-.9-3.28-2.29-3.28s-2.29,1.2-2.29,3.28.89,3.28,2.29,3.28,2.29-1.18,2.29-3.28Z"/>
      <path class="cls-3" d="M1001.71,1415.74v-7.95c0-.96.57-1.46,1.38-1.46s1.38.5,1.38,1.46v.65h.06c.44-1.26,1.56-2.09,2.99-2.09,1.51,0,2.57.78,2.92,2.15h.06c.47-1.32,1.72-2.15,3.25-2.15,2.05,0,3.43,1.41,3.43,3.52v5.87c0,.97-.59,1.48-1.44,1.48s-1.42-.52-1.42-1.48v-5.16c0-1.21-.61-1.88-1.71-1.88s-1.8.79-1.8,1.95v5.08c0,.97-.53,1.48-1.38,1.48s-1.37-.52-1.37-1.48v-5.24c0-1.12-.63-1.79-1.69-1.79s-1.82.82-1.82,1.99v5.04c0,.97-.59,1.48-1.43,1.48s-1.43-.52-1.43-1.48Z"/>
      <path class="cls-3" d="M1023.17,1415.83v-11.19c0-1.19.7-1.9,1.9-1.9,1.03,0,1.59.43,2.02,1.52l3.5,8.66h.08l3.49-8.66c.43-1.08,1.01-1.52,2.04-1.52,1.19,0,1.89.7,1.89,1.9v11.19c0,.87-.49,1.38-1.32,1.38s-1.31-.51-1.31-1.38v-8.32h-.08l-3.49,8.53c-.25.62-.64.9-1.26.9s-1.04-.28-1.28-.89l-3.49-8.54h-.08v8.32c0,.87-.48,1.38-1.31,1.38s-1.32-.51-1.32-1.38Z"/>
      <path class="cls-3" d="M1040.14,1403.78c0-.83.66-1.47,1.52-1.47s1.52.64,1.52,1.47-.66,1.47-1.52,1.47-1.52-.65-1.52-1.47ZM1040.24,1415.74v-7.91c0-.93.54-1.49,1.43-1.49s1.43.57,1.43,1.49v7.91c0,.93-.55,1.48-1.43,1.48s-1.43-.56-1.43-1.48Z"/>
      <path class="cls-3" d="M1044.61,1411.77c0-3.32,1.66-5.38,4.29-5.38,1.51,0,2.69.8,3.19,1.96h.06v-4.14c0-.98.6-1.49,1.43-1.49s1.43.52,1.43,1.49v11.57c0,.95-.59,1.45-1.42,1.45s-1.44-.49-1.44-1.45v-.61h-.05c-.46,1.17-1.61,2.01-3.22,2.01-2.62,0-4.27-2.07-4.27-5.42ZM1052.16,1411.79c0-1.9-.91-3.12-2.32-3.12s-2.31,1.2-2.31,3.12.88,3.11,2.31,3.11,2.32-1.19,2.32-3.11Z"/>
    </g>
    <g>
      <path class="cls-3" d="M634.62,1364.8v-11.02c0-.97.55-1.53,1.47-1.53h4.66c2.65,0,4.31,1.36,4.31,3.52,0,1.54-1.15,2.83-2.65,3.06v.08c1.91.15,3.32,1.54,3.32,3.41,0,2.48-1.87,4.03-4.87,4.03h-4.77c-.93,0-1.47-.57-1.47-1.54ZM639.69,1358.11c1.57,0,2.47-.69,2.47-1.88s-.79-1.78-2.17-1.78h-2.42v3.66h2.12ZM640.11,1364.15c1.7,0,2.62-.72,2.62-2.07s-.95-2.02-2.69-2.02h-2.47v4.09h2.54Z"/>
      <path class="cls-3" d="M651.37,1364.8v-11.2c0-.98.55-1.54,1.47-1.54s1.47.57,1.47,1.54v10.3h5c.8,0,1.34.46,1.34,1.22s-.53,1.22-1.34,1.22h-6.47c-.93,0-1.47-.57-1.47-1.54Z"/>
      <path class="cls-3" d="M661.46,1361.1c0-3.39,2.05-5.45,5.19-5.45s5.19,2.05,5.19,5.45-2.02,5.47-5.19,5.47-5.19-2.03-5.19-5.47ZM668.93,1361.11c0-2.08-.9-3.28-2.29-3.28s-2.29,1.2-2.29,3.28.89,3.28,2.29,3.28,2.29-1.18,2.29-3.28Z"/>
      <path class="cls-3" d="M673.36,1365.11v-11.57c0-.98.6-1.49,1.43-1.49s1.43.52,1.43,1.49v4.16h.06c.58-1.24,1.75-1.98,3.23-1.98,2.65,0,4.26,2.02,4.26,5.4s-1.6,5.4-4.25,5.4c-1.53,0-2.7-.74-3.28-1.96h-.06v.56c0,.95-.59,1.45-1.42,1.45s-1.4-.49-1.4-1.45ZM680.84,1361.11c0-1.9-.89-3.12-2.3-3.12s-2.33,1.24-2.33,3.12.95,3.11,2.33,3.11,2.3-1.19,2.3-3.11Z"/>
      <path class="cls-3" d="M685.31,1365.11v-11.57c0-.98.6-1.49,1.43-1.49s1.43.52,1.43,1.49v4.16h.06c.58-1.24,1.75-1.98,3.23-1.98,2.65,0,4.26,2.02,4.26,5.4s-1.6,5.4-4.25,5.4c-1.53,0-2.7-.74-3.28-1.96h-.06v.56c0,.95-.59,1.45-1.42,1.45s-1.4-.49-1.4-1.45ZM692.79,1361.11c0-1.9-.89-3.12-2.3-3.12s-2.33,1.24-2.33,3.12.95,3.11,2.33,3.11,2.3-1.19,2.3-3.11Z"/>
      <path class="cls-3" d="M696.79,1368.89c0-.58.4-.94,1.04-.94.2,0,.3,0,.5,0,.5,0,1.04-.21,1.38-.95l.15-.37-3.34-8.81c-.11-.29-.17-.61-.17-.84,0-.77.63-1.33,1.47-1.33.75,0,1.14.32,1.38,1.15l2.28,7.25h.05l2.28-7.27c.23-.79.64-1.13,1.38-1.13.82,0,1.39.54,1.39,1.29,0,.23-.06.57-.16.84l-3.21,8.73c-.98,2.71-2.19,3.7-4.48,3.7-1.25,0-1.92-.48-1.92-1.34Z"/>
    </g>
    <g>
      <path class="cls-7" d="M911.54,183.22v-14.32c0-1.26.71-1.99,1.92-1.99h5.08c5.5,0,8.73,3.28,8.73,9.09s-3.24,9.23-8.73,9.23h-5.08c-1.21,0-1.92-.74-1.92-2.01ZM918.07,182.06c3.43,0,5.28-2.08,5.28-6.04s-1.9-5.94-5.28-5.94h-2.7v11.98h2.7Z"/>
      <path class="cls-7" d="M928.92,178.49c0-4.38,2.55-7.16,6.58-7.16s6.45,2.64,6.45,6.33c0,1.03-.58,1.61-1.61,1.61h-7.77v.17c0,2.02,1.22,3.34,3.1,3.34,1.36,0,2.25-.46,3.25-1.64.39-.41.72-.55,1.21-.55.8,0,1.45.51,1.45,1.36,0,.29-.09.6-.25.9-.9,1.68-3.01,2.67-5.64,2.67-4.25,0-6.75-2.63-6.75-7.03ZM938.37,177c-.08-1.78-1.22-2.93-2.84-2.93s-2.81,1.19-2.93,2.93h5.78Z"/>
      <path class="cls-7" d="M944.84,183.57v-9.15h-.71c-.77,0-1.36-.5-1.36-1.37s.58-1.36,1.36-1.36h.71v-1.03c0-2.69,1.32-3.88,3.88-3.91,1.97,0,2.79.62,2.79,1.5,0,.52-.25.83-.75.98-.2.05-.43.09-.71.1-1.14.04-1.6.5-1.6,1.5v.86h1.56c.77,0,1.36.5,1.36,1.36s-.58,1.37-1.36,1.37h-1.47v9.15c0,1.28-.76,1.93-1.85,1.93s-1.85-.65-1.85-1.93Z"/>
      <path class="cls-7" d="M952.22,178.49c0-4.38,2.55-7.16,6.58-7.16s6.45,2.64,6.45,6.33c0,1.03-.58,1.61-1.61,1.61h-7.77v.17c0,2.02,1.22,3.34,3.1,3.34,1.36,0,2.25-.46,3.25-1.64.39-.41.72-.55,1.21-.55.8,0,1.45.51,1.45,1.36,0,.29-.09.6-.25.9-.9,1.68-3.01,2.67-5.64,2.67-4.25,0-6.75-2.63-6.75-7.03ZM961.68,177c-.08-1.78-1.22-2.93-2.84-2.93s-2.81,1.19-2.93,2.93h5.78Z"/>
      <path class="cls-7" d="M967.15,183.57v-10.36c0-1.16.67-1.87,1.79-1.87s1.85.71,1.85,1.88v.76h.08c.72-1.69,2.09-2.62,4.19-2.62,3.02,0,4.72,1.9,4.72,5.09v7.11c0,1.27-.77,1.93-1.85,1.93s-1.85-.66-1.85-1.93v-6.33c0-1.78-.84-2.79-2.5-2.79s-2.72,1.22-2.72,2.98v6.14c0,1.27-.76,1.93-1.85,1.93s-1.85-.66-1.85-1.93Z"/>
      <path class="cls-7" d="M981.64,178.4c0-4.32,2.16-7,5.57-7,1.97,0,3.49,1.04,4.15,2.55h.08v-5.38c0-1.27.77-1.94,1.85-1.94s1.85.67,1.85,1.94v15.04c0,1.23-.76,1.88-1.84,1.88s-1.87-.63-1.87-1.88v-.79h-.06c-.6,1.52-2.09,2.62-4.19,2.62-3.4,0-5.55-2.69-5.55-7.05ZM991.47,178.42c0-2.48-1.18-4.05-3.02-4.05s-3.01,1.56-3.01,4.05,1.14,4.04,3.01,4.04,3.02-1.55,3.02-4.04Z"/>
      <path class="cls-7" d="M997.13,178.49c0-4.38,2.55-7.16,6.58-7.16s6.45,2.64,6.45,6.33c0,1.03-.58,1.61-1.61,1.61h-7.77v.17c0,2.02,1.22,3.34,3.1,3.34,1.36,0,2.25-.46,3.25-1.64.39-.41.72-.55,1.21-.55.8,0,1.45.51,1.45,1.36,0,.29-.09.6-.25.9-.9,1.68-3.01,2.67-5.64,2.67-4.25,0-6.75-2.63-6.75-7.03ZM1006.59,177c-.08-1.78-1.22-2.93-2.84-2.93s-2.81,1.19-2.93,2.93h5.78Z"/>
      <path class="cls-7" d="M1012.06,183.57v-10.36c0-1.18.72-1.87,1.79-1.87s1.75.69,1.75,1.87v.89h.08c.36-1.69,1.47-2.69,2.83-2.69.5,0,.89.11,1.16.34.36.28.53.74.53,1.37,0,.58-.18,1.03-.53,1.33s-.89.47-1.61.48c-1.69.03-2.29.98-2.29,2.59v6.04c0,1.23-.72,1.93-1.85,1.93s-1.85-.7-1.85-1.93Z"/>
      <path class="cls-7" d="M1026.73,182.02c-.13-.33-.2-.69-.2-1.03,0-1.02.7-1.69,1.69-1.69.79,0,1.31.3,1.76,1.12.6,1.4,2.03,2.03,3.78,2.03,2.06,0,3.45-.99,3.45-2.34,0-1.21-.86-1.89-3.16-2.36l-1.94-.38c-3.66-.72-5.45-2.48-5.45-5.21,0-3.35,2.92-5.57,7-5.57,3.35,0,5.88,1.41,6.69,3.8.09.25.14.52.14.85,0,.91-.66,1.54-1.64,1.54-.86,0-1.4-.34-1.83-1.13-.61-1.38-1.79-1.96-3.36-1.96-1.89,0-3.15.89-3.15,2.23,0,1.13.88,1.83,3.05,2.26l1.93.39c3.88.77,5.56,2.34,5.56,5.12,0,3.58-2.81,5.84-7.38,5.84-3.78,0-6.21-1.51-6.94-3.52Z"/>
      <path class="cls-7" d="M1043.07,188.15v-14.9c0-1.24.76-1.9,1.83-1.9s1.83.66,1.83,1.92v.74h.08c.74-1.6,2.25-2.59,4.21-2.59,3.45,0,5.57,2.63,5.57,7.02s-2.11,7.02-5.51,7.02c-1.98,0-3.5-.96-4.23-2.5h-.08v5.21c0,1.27-.76,1.93-1.85,1.93s-1.85-.66-1.85-1.93ZM1052.8,178.42c0-2.46-1.17-4.05-3.02-4.05s-3.01,1.61-3.01,4.05,1.19,4.04,3.01,4.04,3.02-1.56,3.02-4.04Z"/>
      <path class="cls-7" d="M1057.96,181.32c0-2.48,1.9-3.91,5.31-4.11l3.43-.2v-.9c0-1.27-.89-2.01-2.29-2.01-1.13,0-1.82.37-2.64,1.43-.41.46-.88.69-1.47.69-.9,0-1.55-.58-1.55-1.42,0-.29.06-.56.19-.84.63-1.62,2.82-2.63,5.64-2.63,3.49,0,5.76,1.8,5.76,4.54v7.76c0,1.23-.75,1.87-1.8,1.87s-1.7-.56-1.78-1.65v-.7h-.08c-.76,1.45-2.46,2.3-4.16,2.3-2.59,0-4.56-1.68-4.56-4.13ZM1066.7,180.24v-.99l-2.87.18c-1.38.1-2.17.72-2.17,1.69,0,1.02.84,1.65,2.08,1.65,1.62,0,2.96-1.05,2.96-2.53Z"/>
      <path class="cls-7" d="M1074.89,183.55l-2.74-9.48c-.14-.48-.2-.79-.2-1.14,0-.93.75-1.59,1.79-1.59.93,0,1.52.56,1.74,1.57l2.02,8.8h.08l2.11-8.67c.24-1.1.96-1.7,2.09-1.7s1.83.6,2.07,1.7l2.12,8.67h.08l2.03-8.82c.2-.99.8-1.55,1.71-1.55,1.03,0,1.75.65,1.75,1.57,0,.34-.06.65-.2,1.13l-2.74,9.5c-.38,1.35-1.09,1.96-2.37,1.96-1.36,0-2.08-.58-2.4-1.97l-2.07-7.92h-.08l-2.06,7.95c-.32,1.35-1.05,1.94-2.37,1.94s-1.96-.6-2.35-1.94Z"/>
      <path class="cls-7" d="M1093.21,183.57v-10.36c0-1.16.67-1.87,1.79-1.87s1.85.71,1.85,1.88v.76h.08c.72-1.69,2.09-2.62,4.19-2.62,3.02,0,4.72,1.9,4.72,5.09v7.11c0,1.27-.77,1.93-1.85,1.93s-1.85-.66-1.85-1.93v-6.33c0-1.78-.84-2.79-2.5-2.79s-2.72,1.22-2.72,2.98v6.14c0,1.27-.76,1.93-1.85,1.93s-1.85-.66-1.85-1.93Z"/>
    </g>
    <g>
      <path class="cls-3" d="M368.49,1035.76v-11.02c0-.97.55-1.53,1.47-1.53h4.66c2.65,0,4.31,1.36,4.31,3.52,0,1.54-1.15,2.83-2.65,3.06v.08c1.91.15,3.32,1.54,3.32,3.41,0,2.48-1.87,4.03-4.87,4.03h-4.77c-.93,0-1.47-.57-1.47-1.54ZM373.56,1029.07c1.57,0,2.47-.69,2.47-1.88s-.79-1.78-2.17-1.78h-2.42v3.66h2.12ZM373.98,1035.1c1.7,0,2.62-.72,2.62-2.07s-.95-2.02-2.69-2.02h-2.47v4.09h2.54Z"/>
      <path class="cls-3" d="M385.24,1036.11v-11.19c0-1.19.7-1.9,1.9-1.9,1.03,0,1.59.43,2.02,1.52l3.5,8.66h.08l3.49-8.66c.43-1.08,1.01-1.52,2.04-1.52,1.19,0,1.89.7,1.89,1.9v11.19c0,.87-.49,1.38-1.32,1.38s-1.31-.51-1.31-1.38v-8.32h-.08l-3.49,8.53c-.25.62-.64.9-1.26.9s-1.04-.28-1.28-.89l-3.49-8.54h-.08v8.32c0,.87-.48,1.38-1.31,1.38s-1.32-.51-1.32-1.38Z"/>
      <path class="cls-3" d="M401.64,1034.29c0-1.9,1.46-3.01,4.08-3.16l2.64-.16v-.69c0-.98-.68-1.54-1.76-1.54-.87,0-1.4.28-2.03,1.1-.31.35-.67.53-1.13.53-.69,0-1.19-.45-1.19-1.09,0-.22.05-.43.15-.64.49-1.25,2.17-2.02,4.34-2.02,2.69,0,4.43,1.39,4.43,3.5v5.97c0,.95-.58,1.44-1.39,1.44s-1.31-.43-1.37-1.27v-.54h-.06c-.59,1.11-1.89,1.77-3.2,1.77-1.99,0-3.51-1.29-3.51-3.17ZM408.36,1033.46v-.76l-2.21.14c-1.06.08-1.67.56-1.67,1.3,0,.78.64,1.27,1.6,1.27,1.25,0,2.28-.81,2.28-1.94Z"/>
      <path class="cls-3" d="M412.95,1024.06c0-.83.66-1.47,1.52-1.47s1.52.64,1.52,1.47-.66,1.47-1.52,1.47-1.52-.65-1.52-1.47ZM413.04,1036.02v-7.91c0-.93.54-1.49,1.43-1.49s1.43.57,1.43,1.49v7.91c0,.93-.55,1.48-1.43,1.48s-1.43-.56-1.43-1.48Z"/>
      <path class="cls-3" d="M417.79,1036.02v-7.97c0-.89.52-1.44,1.38-1.44s1.43.55,1.43,1.45v.59h.06c.56-1.3,1.61-2.01,3.22-2.01,2.32,0,3.63,1.46,3.63,3.92v5.47c0,.98-.6,1.48-1.43,1.48s-1.43-.51-1.43-1.48v-4.87c0-1.37-.64-2.15-1.92-2.15s-2.09.94-2.09,2.29v4.73c0,.98-.59,1.48-1.43,1.48s-1.43-.51-1.43-1.48Z"/>
    </g>
    <g>
      <path class="cls-3" d="M1798.33,621.58v-11.02c0-.97.55-1.53,1.47-1.53h6.7c.81,0,1.34.46,1.34,1.22s-.54,1.22-1.34,1.22h-5.22v3.39h4.97c.73,0,1.23.43,1.23,1.13s-.49,1.13-1.23,1.13h-4.97v3.55h5.22c.8,0,1.34.46,1.34,1.22s-.53,1.22-1.34,1.22h-6.7c-.93,0-1.47-.57-1.47-1.54Z"/>
      <path class="cls-3" d="M1809.62,621.85v-11.53c0-.98.6-1.49,1.43-1.49s1.43.52,1.43,1.49v11.53c0,.98-.59,1.48-1.43,1.48s-1.43-.51-1.43-1.48Z"/>
      <path class="cls-3" d="M1814.47,621.88v-11.57c0-.98.6-1.49,1.43-1.49s1.43.52,1.43,1.49v4.16h.06c.58-1.24,1.75-1.98,3.23-1.98,2.65,0,4.26,2.02,4.26,5.4s-1.6,5.4-4.25,5.4c-1.53,0-2.7-.74-3.28-1.96h-.06v.56c0,.95-.59,1.45-1.42,1.45s-1.4-.49-1.4-1.45ZM1821.95,617.89c0-1.9-.89-3.12-2.3-3.12s-2.33,1.24-2.33,3.12.95,3.11,2.33,3.11,2.3-1.19,2.3-3.11Z"/>
      <path class="cls-3" d="M1825.96,617.88c0-3.39,2.05-5.45,5.19-5.45s5.19,2.05,5.19,5.45-2.02,5.47-5.19,5.47-5.19-2.03-5.19-5.47ZM1833.43,617.89c0-2.08-.9-3.28-2.29-3.28s-2.29,1.2-2.29,3.28.89,3.28,2.29,3.28,2.29-1.18,2.29-3.28Z"/>
      <path class="cls-3" d="M1839.41,621.84l-2.11-7.29c-.11-.37-.16-.61-.16-.88,0-.71.58-1.22,1.38-1.22.71,0,1.17.43,1.34,1.21l1.55,6.77h.06l1.62-6.67c.19-.85.74-1.31,1.61-1.31s1.41.46,1.59,1.31l1.63,6.67h.06l1.56-6.79c.16-.76.62-1.19,1.32-1.19.79,0,1.35.5,1.35,1.21,0,.26-.05.5-.16.87l-2.11,7.3c-.29,1.04-.84,1.5-1.83,1.5-1.04,0-1.6-.45-1.85-1.51l-1.59-6.09h-.06l-1.58,6.11c-.24,1.04-.81,1.49-1.83,1.49s-1.5-.46-1.81-1.49Z"/>
    </g>
    <g>
      <path class="cls-3" d="M990.81,590.13l-2.94-10.66c-.1-.36-.16-.71-.16-.98,0-.82.56-1.33,1.46-1.33.77,0,1.24.43,1.42,1.27l2.11,9.13h.08l2.37-9.08c.22-.92.69-1.32,1.51-1.32s1.29.43,1.5,1.3l2.37,9.1h.08l2.11-9.13c.19-.85.65-1.27,1.43-1.27.9,0,1.46.51,1.46,1.33,0,.25-.06.61-.16.98l-2.95,10.68c-.29,1.04-.8,1.48-1.71,1.48s-1.46-.44-1.75-1.49l-2.34-8.32h-.09l-2.33,8.32c-.28,1.04-.81,1.49-1.74,1.49s-1.44-.45-1.73-1.5Z"/>
      <path class="cls-3" d="M1007.19,578.21c0-.83.66-1.47,1.52-1.47s1.52.64,1.52,1.47-.66,1.47-1.52,1.47-1.52-.65-1.52-1.47ZM1007.29,590.17v-7.91c0-.93.54-1.49,1.43-1.49s1.43.57,1.43,1.49v7.91c0,.93-.55,1.48-1.43,1.48s-1.43-.56-1.43-1.48Z"/>
      <path class="cls-3" d="M1012.03,590.17v-7.97c0-.89.52-1.44,1.38-1.44s1.43.55,1.43,1.45v.59h.06c.56-1.3,1.61-2.01,3.22-2.01,2.32,0,3.63,1.46,3.63,3.92v5.47c0,.98-.6,1.48-1.43,1.48s-1.43-.51-1.43-1.48v-4.87c0-1.37-.64-2.15-1.92-2.15s-2.09.94-2.09,2.29v4.73c0,.98-.59,1.48-1.43,1.48s-1.43-.51-1.43-1.48Z"/>
      <path class="cls-3" d="M1023.18,586.2c0-3.32,1.66-5.38,4.29-5.38,1.51,0,2.69.8,3.19,1.96h.06v-4.14c0-.98.6-1.49,1.43-1.49s1.43.52,1.43,1.49v11.57c0,.95-.59,1.45-1.42,1.45s-1.44-.49-1.44-1.45v-.61h-.05c-.46,1.17-1.61,2.01-3.22,2.01-2.62,0-4.27-2.07-4.27-5.42ZM1030.73,586.22c0-1.9-.91-3.12-2.32-3.12s-2.31,1.2-2.31,3.12.88,3.11,2.31,3.11,2.32-1.19,2.32-3.11Z"/>
      <path class="cls-3" d="M1035.09,586.21c0-3.39,2.05-5.45,5.19-5.45s5.19,2.05,5.19,5.45-2.02,5.47-5.19,5.47-5.19-2.03-5.19-5.47ZM1042.56,586.22c0-2.08-.9-3.28-2.29-3.28s-2.29,1.2-2.29,3.28.89,3.28,2.29,3.28,2.29-1.18,2.29-3.28Z"/>
      <path class="cls-3" d="M1048.54,590.16l-2.11-7.29c-.11-.37-.16-.61-.16-.88,0-.71.58-1.22,1.38-1.22.71,0,1.17.43,1.34,1.21l1.55,6.77h.06l1.62-6.67c.19-.85.74-1.31,1.61-1.31s1.41.46,1.59,1.31l1.63,6.67h.06l1.56-6.79c.16-.76.62-1.19,1.32-1.19.79,0,1.35.5,1.35,1.21,0,.26-.05.5-.16.87l-2.11,7.3c-.29,1.04-.84,1.5-1.83,1.5-1.04,0-1.6-.45-1.85-1.51l-1.59-6.09h-.06l-1.58,6.11c-.24,1.04-.81,1.49-1.83,1.49s-1.5-.46-1.81-1.49Z"/>
    </g>
    <g>
      <path class="cls-3" d="M531.6,542.79v-10.3h-2.91c-.8,0-1.34-.46-1.34-1.22s.53-1.22,1.34-1.22h8.78c.8,0,1.33.46,1.33,1.22s-.54,1.22-1.33,1.22h-2.92v10.3c0,.97-.55,1.53-1.47,1.53s-1.47-.57-1.47-1.53Z"/>
      <path class="cls-3" d="M537.34,538.89c0-3.39,2.05-5.45,5.19-5.45s5.19,2.05,5.19,5.45-2.02,5.47-5.19,5.47-5.19-2.03-5.19-5.47ZM544.81,538.9c0-2.08-.9-3.28-2.29-3.28s-2.29,1.2-2.29,3.28.89,3.28,2.29,3.28,2.29-1.18,2.29-3.28Z"/>
      <path class="cls-3" d="M550.79,542.85l-2.11-7.29c-.11-.37-.16-.61-.16-.88,0-.71.58-1.22,1.38-1.22.71,0,1.17.43,1.34,1.21l1.55,6.77h.06l1.62-6.67c.19-.85.74-1.31,1.61-1.31s1.41.46,1.59,1.31l1.63,6.67h.06l1.56-6.79c.16-.76.62-1.19,1.32-1.19.79,0,1.35.5,1.35,1.21,0,.26-.05.5-.16.87l-2.11,7.3c-.29,1.04-.84,1.5-1.83,1.5-1.04,0-1.6-.45-1.85-1.51l-1.59-6.09h-.06l-1.58,6.11c-.24,1.04-.81,1.49-1.83,1.49s-1.5-.46-1.81-1.49Z"/>
      <path class="cls-3" d="M564.35,538.95c0-3.37,1.96-5.51,5.06-5.51s4.96,2.03,4.96,4.87c0,.79-.45,1.24-1.24,1.24h-5.98v.13c0,1.55.94,2.57,2.38,2.57,1.04,0,1.73-.35,2.5-1.26.3-.31.56-.42.93-.42.62,0,1.11.39,1.11,1.04,0,.22-.07.46-.2.69-.69,1.29-2.31,2.05-4.34,2.05-3.27,0-5.2-2.02-5.2-5.41ZM571.63,537.81c-.06-1.37-.94-2.26-2.19-2.26s-2.16.92-2.26,2.26h4.44Z"/>
      <path class="cls-3" d="M575.84,542.86v-7.97c0-.91.56-1.44,1.38-1.44s1.35.53,1.35,1.44v.68h.06c.27-1.3,1.13-2.07,2.18-2.07.38,0,.68.09.89.26.27.21.41.57.41,1.05,0,.45-.14.79-.41,1.03s-.68.36-1.24.37c-1.3.02-1.76.75-1.76,1.99v4.65c0,.95-.56,1.48-1.43,1.48s-1.43-.54-1.43-1.48Z"/>
    </g>
    <path class="cls-3" d="M460.06,774.89v-31.95c0-2.8,1.59-4.45,4.28-4.45h13.51c7.67,0,12.49,3.94,12.49,10.2,0,4.47-3.34,8.21-7.67,8.86v.23c5.55.42,9.63,4.47,9.63,9.88,0,7.19-5.41,11.7-14.13,11.7h-13.82c-2.69,0-4.28-1.64-4.28-4.47ZM474.76,755.49c4.56,0,7.17-2.01,7.17-5.47s-2.29-5.15-6.29-5.15h-7.02v10.62h6.15ZM475.97,772.99c4.93,0,7.59-2.1,7.59-6s-2.75-5.86-7.79-5.86h-7.17v11.87h7.36Z"/>
    <path class="cls-3" d="M1667.78,774.26c-2.27,0-3.54-1.13-4.33-3.85l-2.15-6.37h-14.75l-2.15,6.46c-.76,2.66-2.04,3.77-4.45,3.77s-4.28-1.67-4.28-4.02c0-.85.14-1.61.54-2.72l11.21-30.42c1.22-3.34,3.2-4.81,6.54-4.81s5.24,1.53,6.43,4.84l11.16,30.39c.37,1.05.57,2.01.57,2.72,0,2.46-1.67,4.02-4.33,4.02ZM1659.42,757.41l-5.3-16.74h-.2l-5.41,16.74h10.9Z"/>
    <g>
      <path class="cls-3" d="M194.13,511.37v-11.02c0-.97.55-1.53,1.47-1.53h6.7c.81,0,1.34.46,1.34,1.22s-.54,1.22-1.34,1.22h-5.22v3.39h4.97c.73,0,1.23.43,1.23,1.13s-.49,1.13-1.23,1.13h-4.97v3.55h5.22c.8,0,1.34.46,1.34,1.22s-.53,1.22-1.34,1.22h-6.7c-.93,0-1.47-.57-1.47-1.54Z"/>
      <path class="cls-3" d="M205.42,511.63v-11.53c0-.98.6-1.49,1.43-1.49s1.43.52,1.43,1.49v11.53c0,.98-.59,1.48-1.43,1.48s-1.43-.51-1.43-1.48Z"/>
      <path class="cls-3" d="M210.26,511.67v-11.57c0-.98.6-1.49,1.43-1.49s1.43.52,1.43,1.49v4.16h.06c.58-1.24,1.75-1.98,3.23-1.98,2.65,0,4.26,2.02,4.26,5.4s-1.6,5.4-4.25,5.4c-1.53,0-2.7-.74-3.28-1.96h-.06v.56c0,.95-.59,1.45-1.42,1.45s-1.4-.49-1.4-1.45ZM217.74,507.68c0-1.9-.89-3.12-2.3-3.12s-2.33,1.24-2.33,3.12.95,3.11,2.33,3.11,2.3-1.19,2.3-3.11Z"/>
      <path class="cls-3" d="M221.76,507.67c0-3.39,2.05-5.45,5.19-5.45s5.19,2.05,5.19,5.45-2.02,5.47-5.19,5.47-5.19-2.03-5.19-5.47ZM229.23,507.68c0-2.08-.9-3.28-2.29-3.28s-2.29,1.2-2.29,3.28.89,3.28,2.29,3.28,2.29-1.18,2.29-3.28Z"/>
      <path class="cls-3" d="M235.21,511.62l-2.11-7.29c-.11-.37-.16-.61-.16-.88,0-.71.58-1.22,1.38-1.22.71,0,1.17.43,1.34,1.21l1.55,6.77h.06l1.62-6.67c.19-.85.74-1.31,1.61-1.31s1.41.46,1.59,1.31l1.63,6.67h.06l1.56-6.79c.16-.76.62-1.19,1.32-1.19.79,0,1.35.5,1.35,1.21,0,.26-.05.5-.16.87l-2.11,7.3c-.29,1.04-.84,1.5-1.83,1.5-1.04,0-1.6-.45-1.85-1.51l-1.59-6.09h-.06l-1.58,6.11c-.24,1.04-.81,1.49-1.83,1.49s-1.5-.46-1.81-1.49Z"/>
    </g>
    <g>
      <path class="cls-3" d="M782.08,756.09v-11.02c0-.97.55-1.53,1.47-1.53h4.66c2.65,0,4.31,1.36,4.31,3.52,0,1.54-1.15,2.83-2.65,3.06v.08c1.91.15,3.32,1.54,3.32,3.41,0,2.48-1.87,4.03-4.87,4.03h-4.77c-.93,0-1.47-.57-1.47-1.54ZM787.15,749.4c1.57,0,2.47-.69,2.47-1.88s-.79-1.78-2.17-1.78h-2.42v3.66h2.12ZM787.57,755.44c1.7,0,2.62-.72,2.62-2.07s-.95-2.02-2.69-2.02h-2.47v4.09h2.54Z"/>
      <path class="cls-3" d="M798.83,756.09v-11.2c0-.98.55-1.54,1.47-1.54s1.47.57,1.47,1.54v10.3h5c.8,0,1.34.46,1.34,1.22s-.53,1.22-1.34,1.22h-6.47c-.93,0-1.47-.57-1.47-1.54Z"/>
      <path class="cls-3" d="M809.4,744.39c0-.83.66-1.47,1.52-1.47s1.52.64,1.52,1.47-.66,1.47-1.52,1.47-1.52-.65-1.52-1.47ZM809.49,756.36v-7.91c0-.93.54-1.49,1.43-1.49s1.43.57,1.43,1.49v7.91c0,.93-.55,1.48-1.43,1.48s-1.43-.56-1.43-1.48Z"/>
      <path class="cls-3" d="M814.24,756.36v-7.97c0-.89.52-1.44,1.38-1.44s1.43.55,1.43,1.45v.59h.06c.56-1.3,1.61-2.01,3.22-2.01,2.32,0,3.63,1.46,3.63,3.92v5.47c0,.98-.6,1.48-1.43,1.48s-1.43-.51-1.43-1.48v-4.87c0-1.37-.64-2.15-1.92-2.15s-2.09.94-2.09,2.29v4.73c0,.98-.59,1.48-1.43,1.48s-1.43-.51-1.43-1.48Z"/>
      <path class="cls-3" d="M825.83,756.36v-11.53c0-.98.6-1.49,1.43-1.49s1.43.52,1.43,1.49v6.49h.04l3.79-3.8c.38-.4.7-.57,1.13-.57.73,0,1.27.54,1.27,1.24,0,.43-.13.69-.54,1.07l-2.67,2.52,2.92,3.72c.31.42.4.67.4,1.04,0,.76-.56,1.29-1.36,1.29-.61,0-.95-.21-1.4-.89l-2.69-3.55-.91.84v2.12c0,.98-.59,1.48-1.43,1.48s-1.43-.51-1.43-1.48Z"/>
    </g>
    <g>
      <path class="cls-3" d="M1786.17,915.64v-11.21c0-.97.55-1.53,1.47-1.53h4.26c2.89,0,4.88,1.92,4.88,4.82s-2.06,4.82-5.03,4.82h-2.64v3.1c0,.97-.55,1.53-1.47,1.53s-1.47-.57-1.47-1.53ZM1791.11,910.24c1.69,0,2.68-.9,2.68-2.51s-.98-2.5-2.67-2.5h-2v5.01h1.99Z"/>
      <path class="cls-3" d="M1797.56,911.74c0-3.39,2.05-5.45,5.19-5.45s5.19,2.05,5.19,5.45-2.02,5.47-5.19,5.47-5.19-2.03-5.19-5.47ZM1805.03,911.75c0-2.08-.9-3.28-2.29-3.28s-2.29,1.2-2.29,3.28.89,3.28,2.29,3.28,2.29-1.18,2.29-3.28Z"/>
      <path class="cls-3" d="M1809.01,911.75c0-3.35,1.99-5.46,5.14-5.46,2.1,0,3.85,1.02,4.41,2.5.1.24.16.5.16.7,0,.7-.55,1.11-1.22,1.11-.57,0-.91-.22-1.2-.74-.52-.92-1.15-1.34-2.06-1.34-1.45,0-2.33,1.19-2.33,3.21s.89,3.23,2.31,3.23c1,0,1.61-.49,2.05-1.23.38-.6.69-.84,1.3-.84.66,0,1.2.44,1.2,1.14,0,.22-.06.46-.19.74-.62,1.43-2.41,2.42-4.41,2.42-3.15,0-5.16-2.07-5.16-5.46Z"/>
      <path class="cls-3" d="M1820.36,915.7v-11.53c0-.98.6-1.49,1.43-1.49s1.43.52,1.43,1.49v6.49h.04l3.79-3.8c.38-.4.7-.57,1.13-.57.73,0,1.27.54,1.27,1.24,0,.43-.13.69-.54,1.07l-2.67,2.52,2.92,3.72c.31.42.4.67.4,1.04,0,.76-.56,1.29-1.36,1.29-.61,0-.95-.21-1.4-.89l-2.69-3.55-.91.84v2.12c0,.98-.59,1.48-1.43,1.48s-1.43-.51-1.43-1.48Z"/>
      <path class="cls-3" d="M1830.19,911.8c0-3.37,1.96-5.51,5.06-5.51s4.96,2.03,4.96,4.87c0,.79-.45,1.24-1.24,1.24h-5.98v.13c0,1.55.94,2.57,2.38,2.57,1.04,0,1.73-.35,2.5-1.26.3-.31.56-.42.93-.42.62,0,1.11.39,1.11,1.04,0,.22-.07.46-.2.69-.69,1.29-2.31,2.05-4.34,2.05-3.27,0-5.2-2.02-5.2-5.41ZM1837.46,910.66c-.06-1.37-.94-2.26-2.19-2.26s-2.16.92-2.26,2.26h4.44Z"/>
      <path class="cls-3" d="M1842.43,908.66h-.55c-.67,0-1.1-.41-1.1-1.07s.43-1.07,1.1-1.07h.55v-1.16c0-.92.54-1.48,1.43-1.48s1.43.57,1.43,1.48v1.16h1.01c.67,0,1.09.42,1.09,1.07s-.42,1.07-1.09,1.07h-1.01v5.01c0,.74.25,1.05.87,1.1l.19.02c.7.08,1.08.37,1.08,1.04,0,.84-.82,1.27-2.02,1.27h-.1c-1.9,0-2.87-.95-2.87-2.79v-5.64Z"/>
    </g>
    <g>
      <path class="cls-3" d="M1373.65,1417.85c0-.24.07-.58.2-.94l3.85-10.48c.41-1.14,1.1-1.67,2.22-1.67s1.84.51,2.26,1.66l3.87,10.49c.14.38.19.64.19.94,0,.81-.62,1.39-1.47,1.39s-1.27-.38-1.53-1.3l-.74-2.23h-5.09l-.74,2.2c-.27.94-.71,1.33-1.49,1.33-.92,0-1.49-.54-1.49-1.39ZM1381.78,1413.42l-1.87-5.77h-.07l-1.83,5.77h3.76Z"/>
      <path class="cls-3" d="M1391.96,1417.5v-11.2c0-.98.55-1.54,1.47-1.54s1.47.57,1.47,1.54v10.3h5c.8,0,1.34.46,1.34,1.22s-.53,1.22-1.34,1.22h-6.47c-.93,0-1.47-.57-1.47-1.54Z"/>
      <path class="cls-3" d="M1402.05,1413.8c0-3.39,2.05-5.45,5.19-5.45s5.19,2.05,5.19,5.45-2.02,5.47-5.19,5.47-5.19-2.03-5.19-5.47ZM1409.52,1413.81c0-2.08-.9-3.28-2.29-3.28s-2.29,1.2-2.29,3.28.89,3.28,2.29,3.28,2.29-1.18,2.29-3.28Z"/>
      <path class="cls-3" d="M1413.95,1417.81v-11.57c0-.98.6-1.49,1.43-1.49s1.43.52,1.43,1.49v4.16h.06c.58-1.24,1.75-1.98,3.23-1.98,2.65,0,4.26,2.02,4.26,5.4s-1.6,5.4-4.25,5.4c-1.53,0-2.7-.74-3.28-1.96h-.06v.56c0,.95-.59,1.45-1.42,1.45s-1.4-.49-1.4-1.45ZM1421.43,1413.81c0-1.9-.89-3.12-2.3-3.12s-2.33,1.24-2.33,3.12.95,3.11,2.33,3.11,2.3-1.19,2.3-3.11Z"/>
      <path class="cls-3" d="M1425.89,1417.81v-11.57c0-.98.6-1.49,1.43-1.49s1.43.52,1.43,1.49v4.16h.06c.58-1.24,1.75-1.98,3.23-1.98,2.65,0,4.26,2.02,4.26,5.4s-1.6,5.4-4.25,5.4c-1.53,0-2.7-.74-3.28-1.96h-.06v.56c0,.95-.59,1.45-1.42,1.45s-1.4-.49-1.4-1.45ZM1433.38,1413.81c0-1.9-.89-3.12-2.3-3.12s-2.33,1.24-2.33,3.12.95,3.11,2.33,3.11,2.3-1.19,2.3-3.11Z"/>
      <path class="cls-3" d="M1437.38,1421.59c0-.58.4-.94,1.04-.94.2,0,.3,0,.5,0,.5,0,1.04-.21,1.38-.95l.15-.37-3.34-8.81c-.11-.29-.17-.61-.17-.84,0-.77.63-1.33,1.47-1.33.75,0,1.14.32,1.38,1.15l2.28,7.25h.05l2.28-7.27c.23-.79.64-1.13,1.38-1.13.82,0,1.39.54,1.39,1.29,0,.23-.06.57-.16.84l-3.21,8.73c-.98,2.71-2.19,3.7-4.48,3.7-1.25,0-1.92-.48-1.92-1.34Z"/>
    </g>
    <g>
      <path class="cls-3" d="M1513.81,1190.68c0-.24.07-.58.2-.94l3.85-10.48c.41-1.14,1.1-1.67,2.22-1.67s1.84.51,2.26,1.66l3.87,10.49c.14.38.19.64.19.94,0,.81-.62,1.39-1.47,1.39s-1.27-.38-1.53-1.3l-.74-2.23h-5.09l-.74,2.2c-.27.94-.71,1.33-1.49,1.33-.92,0-1.49-.54-1.49-1.39ZM1521.94,1186.25l-1.87-5.77h-.07l-1.83,5.77h3.76Z"/>
      <path class="cls-3" d="M1532.12,1190.69v-11.19c0-1.19.7-1.9,1.9-1.9,1.03,0,1.59.43,2.02,1.52l3.5,8.66h.08l3.49-8.66c.43-1.08,1.01-1.52,2.04-1.52,1.19,0,1.89.7,1.89,1.9v11.19c0,.87-.49,1.38-1.32,1.38s-1.31-.51-1.31-1.38v-8.32h-.08l-3.49,8.53c-.25.62-.64.9-1.26.9s-1.04-.28-1.28-.89l-3.49-8.54h-.08v8.32c0,.87-.48,1.38-1.31,1.38s-1.32-.51-1.32-1.38Z"/>
      <path class="cls-3" d="M1548.51,1188.87c0-1.9,1.46-3.01,4.08-3.16l2.64-.16v-.69c0-.98-.68-1.54-1.76-1.54-.87,0-1.4.28-2.03,1.1-.31.35-.67.53-1.13.53-.69,0-1.19-.45-1.19-1.09,0-.22.05-.43.15-.64.49-1.25,2.17-2.02,4.34-2.02,2.69,0,4.43,1.39,4.43,3.5v5.97c0,.95-.58,1.44-1.39,1.44s-1.31-.43-1.37-1.27v-.54h-.06c-.59,1.11-1.89,1.77-3.2,1.77-1.99,0-3.51-1.29-3.51-3.17ZM1555.23,1188.04v-.76l-2.21.14c-1.06.08-1.67.56-1.67,1.3,0,.78.64,1.27,1.6,1.27,1.25,0,2.28-.81,2.28-1.94Z"/>
      <path class="cls-3" d="M1559.82,1178.64c0-.83.66-1.47,1.52-1.47s1.52.64,1.52,1.47-.66,1.47-1.52,1.47-1.52-.65-1.52-1.47ZM1559.92,1190.6v-7.91c0-.93.54-1.49,1.43-1.49s1.43.57,1.43,1.49v7.91c0,.93-.55,1.48-1.43,1.48s-1.43-.56-1.43-1.48Z"/>
      <path class="cls-3" d="M1564.67,1190.6v-7.97c0-.89.52-1.44,1.38-1.44s1.43.55,1.43,1.45v.59h.06c.56-1.3,1.61-2.01,3.22-2.01,2.32,0,3.63,1.46,3.63,3.92v5.47c0,.98-.6,1.48-1.43,1.48s-1.43-.51-1.43-1.48v-4.87c0-1.37-.64-2.15-1.92-2.15s-2.09.94-2.09,2.29v4.73c0,.98-.59,1.48-1.43,1.48s-1.43-.51-1.43-1.48Z"/>
    </g>
    <g>
      <path class="cls-3" d="M978.23,729.71v-10.3h-2.91c-.8,0-1.34-.46-1.34-1.22s.53-1.22,1.34-1.22h8.78c.8,0,1.33.46,1.33,1.22s-.54,1.22-1.33,1.22h-2.92v10.3c0,.97-.55,1.53-1.47,1.53s-1.47-.57-1.47-1.53Z"/>
      <path class="cls-3" d="M983.97,725.81c0-3.39,2.05-5.45,5.19-5.45s5.19,2.05,5.19,5.45-2.02,5.47-5.19,5.47-5.19-2.03-5.19-5.47ZM991.44,725.82c0-2.08-.9-3.28-2.29-3.28s-2.29,1.2-2.29,3.28.89,3.28,2.29,3.28,2.29-1.18,2.29-3.28Z"/>
      <path class="cls-3" d="M995.81,733.3v-11.46c0-.96.59-1.46,1.41-1.46s1.41.51,1.41,1.47v.57h.06c.57-1.23,1.73-1.99,3.24-1.99,2.66,0,4.29,2.02,4.29,5.4s-1.62,5.4-4.24,5.4c-1.52,0-2.7-.74-3.25-1.92h-.06v4c0,.98-.59,1.48-1.43,1.48s-1.43-.51-1.43-1.48ZM1003.29,725.82c0-1.89-.9-3.12-2.32-3.12s-2.31,1.24-2.31,3.12.92,3.11,2.31,3.11,2.32-1.2,2.32-3.11Z"/>
      <path class="cls-3" d="M1011.87,729.86v-11.19c0-1.19.7-1.9,1.9-1.9,1.03,0,1.59.43,2.02,1.52l3.5,8.66h.08l3.49-8.66c.43-1.08,1.01-1.52,2.04-1.52,1.19,0,1.89.7,1.89,1.9v11.19c0,.87-.49,1.38-1.32,1.38s-1.31-.51-1.31-1.38v-8.32h-.08l-3.49,8.53c-.25.62-.64.9-1.26.9s-1.04-.28-1.28-.89l-3.49-8.54h-.08v8.32c0,.87-.48,1.38-1.31,1.38s-1.32-.51-1.32-1.38Z"/>
      <path class="cls-3" d="M1028.85,717.81c0-.83.66-1.47,1.52-1.47s1.52.64,1.52,1.47-.66,1.47-1.52,1.47-1.52-.65-1.52-1.47ZM1028.94,729.78v-7.91c0-.93.54-1.49,1.43-1.49s1.43.57,1.43,1.49v7.91c0,.93-.55,1.48-1.43,1.48s-1.43-.56-1.43-1.48Z"/>
      <path class="cls-3" d="M1033.31,725.8c0-3.32,1.66-5.38,4.29-5.38,1.51,0,2.69.8,3.19,1.96h.06v-4.14c0-.98.6-1.49,1.43-1.49s1.43.52,1.43,1.49v11.57c0,.95-.59,1.45-1.42,1.45s-1.44-.49-1.44-1.45v-.61h-.05c-.46,1.17-1.61,2.01-3.22,2.01-2.62,0-4.27-2.07-4.27-5.42ZM1040.87,725.82c0-1.9-.91-3.12-2.32-3.12s-2.31,1.2-2.31,3.12.88,3.11,2.31,3.11,2.32-1.19,2.32-3.11Z"/>
    </g>
    <g>
      <path class="cls-3" d="M337.95,305.05c0-.24.07-.58.2-.94l3.85-10.48c.41-1.14,1.1-1.67,2.22-1.67s1.84.51,2.26,1.66l3.87,10.49c.14.38.19.64.19.94,0,.81-.62,1.39-1.47,1.39s-1.27-.38-1.53-1.3l-.74-2.23h-5.09l-.74,2.2c-.27.94-.71,1.33-1.49,1.33-.92,0-1.49-.54-1.49-1.39ZM346.09,300.63l-1.87-5.77h-.07l-1.83,5.77h3.76Z"/>
      <path class="cls-3" d="M352.06,304.98v-7.97c0-.91.56-1.44,1.38-1.44s1.35.53,1.35,1.44v.68h.06c.27-1.3,1.13-2.07,2.18-2.07.38,0,.68.09.89.26.27.21.41.57.41,1.05,0,.45-.14.79-.41,1.03s-.68.36-1.24.37c-1.3.02-1.76.75-1.76,1.99v4.65c0,.95-.56,1.48-1.43,1.48s-1.43-.54-1.43-1.48Z"/>
      <path class="cls-3" d="M358.61,301.02c0-3.35,1.99-5.46,5.14-5.46,2.1,0,3.85,1.02,4.41,2.5.1.24.16.5.16.7,0,.7-.55,1.11-1.22,1.11-.57,0-.91-.22-1.2-.74-.52-.92-1.15-1.34-2.06-1.34-1.45,0-2.33,1.19-2.33,3.21s.89,3.23,2.31,3.23c1,0,1.61-.49,2.05-1.23.38-.6.69-.84,1.3-.84.66,0,1.2.44,1.2,1.14,0,.22-.06.46-.19.74-.62,1.43-2.41,2.42-4.41,2.42-3.15,0-5.16-2.07-5.16-5.46Z"/>
      <path class="cls-3" d="M369.96,304.98v-11.56c0-.92.53-1.46,1.41-1.46s1.4.55,1.4,1.46v4.24h.06c.56-1.32,1.7-2.06,3.29-2.06,2.32,0,3.65,1.5,3.65,3.93v5.46c0,.98-.59,1.48-1.43,1.48s-1.43-.51-1.43-1.48v-4.85c0-1.35-.66-2.17-1.96-2.17s-2.14.95-2.14,2.32v4.7c0,.98-.59,1.48-1.43,1.48s-1.43-.51-1.43-1.48Z"/>
    </g>
    <g>
      <path class="cls-3" d="M981.49,1048.2v-11.19c0-1.19.7-1.9,1.9-1.9,1.03,0,1.59.43,2.02,1.52l3.5,8.66h.08l3.49-8.66c.43-1.08,1.01-1.52,2.04-1.52,1.19,0,1.89.7,1.89,1.9v11.19c0,.87-.49,1.38-1.32,1.38s-1.31-.51-1.31-1.38v-8.32h-.08l-3.49,8.53c-.25.62-.64.9-1.26.9s-1.04-.28-1.28-.89l-3.49-8.54h-.08v8.32c0,.87-.48,1.38-1.31,1.38s-1.32-.51-1.32-1.38Z"/>
      <path class="cls-3" d="M998.46,1036.15c0-.83.66-1.47,1.52-1.47s1.52.64,1.52,1.47-.66,1.47-1.52,1.47-1.52-.65-1.52-1.47ZM998.56,1048.11v-7.91c0-.93.54-1.49,1.43-1.49s1.43.57,1.43,1.49v7.91c0,.93-.55,1.48-1.43,1.48s-1.43-.56-1.43-1.48Z"/>
      <path class="cls-3" d="M1002.92,1044.13c0-3.32,1.66-5.38,4.29-5.38,1.51,0,2.69.8,3.19,1.96h.06v-4.14c0-.98.6-1.49,1.43-1.49s1.43.52,1.43,1.49v11.57c0,.95-.59,1.45-1.42,1.45s-1.44-.49-1.44-1.45v-.61h-.05c-.46,1.17-1.61,2.01-3.22,2.01-2.62,0-4.27-2.07-4.27-5.42ZM1010.48,1044.15c0-1.9-.91-3.12-2.32-3.12s-2.31,1.2-2.31,3.12.88,3.11,2.31,3.11,2.32-1.19,2.32-3.11Z"/>
    </g>
    <g>
      <path class="cls-2" d="M930.72,1799.16c0-.32.09-.75.25-1.22l5-13.62c.53-1.49,1.43-2.17,2.88-2.17s2.39.66,2.93,2.16l5.03,13.63c.18.5.24.84.24,1.22,0,1.05-.8,1.8-1.92,1.8s-1.65-.5-1.99-1.69l-.96-2.89h-6.61l-.96,2.86c-.36,1.22-.93,1.73-1.94,1.73-1.19,0-1.94-.7-1.94-1.8ZM941.3,1793.41l-2.42-7.5h-.09l-2.37,7.5h4.89Z"/>
      <path class="cls-2" d="M949.17,1789.9h-.71c-.88,0-1.43-.53-1.43-1.4s.56-1.4,1.43-1.4h.71v-1.51c0-1.19.7-1.93,1.85-1.93s1.85.74,1.85,1.93v1.51h1.31c.88,0,1.42.55,1.42,1.4s-.55,1.4-1.42,1.4h-1.31v6.51c0,.96.33,1.37,1.13,1.43l.24.03c.91.1,1.41.48,1.41,1.35,0,1.09-1.07,1.65-2.63,1.65h-.13c-2.48,0-3.73-1.23-3.73-3.63v-7.34Z"/>
      <path class="cls-2" d="M958.41,1789.9h-.71c-.88,0-1.43-.53-1.43-1.4s.56-1.4,1.43-1.4h.71v-1.51c0-1.19.7-1.93,1.85-1.93s1.85.74,1.85,1.93v1.51h1.31c.88,0,1.42.55,1.42,1.4s-.55,1.4-1.42,1.4h-1.31v6.51c0,.96.33,1.37,1.13,1.43l.24.03c.91.1,1.41.48,1.41,1.35,0,1.09-1.07,1.65-2.63,1.65h-.13c-2.48,0-3.73-1.23-3.73-3.63v-7.34Z"/>
      <path class="cls-2" d="M966,1796.81c0-2.48,1.9-3.91,5.31-4.11l3.43-.2v-.9c0-1.27-.89-2.01-2.29-2.01-1.13,0-1.82.37-2.64,1.43-.41.46-.88.69-1.47.69-.9,0-1.55-.58-1.55-1.42,0-.29.06-.56.19-.84.63-1.62,2.82-2.63,5.64-2.63,3.49,0,5.76,1.8,5.76,4.54v7.76c0,1.23-.75,1.87-1.8,1.87s-1.7-.56-1.78-1.65v-.7h-.08c-.76,1.45-2.46,2.3-4.16,2.3-2.59,0-4.56-1.68-4.56-4.13ZM974.74,1795.73v-.99l-2.87.18c-1.38.1-2.17.72-2.17,1.69,0,1.02.84,1.65,2.08,1.65,1.62,0,2.96-1.05,2.96-2.53Z"/>
      <path class="cls-2" d="M980.27,1793.92c0-4.35,2.59-7.1,6.68-7.1,2.73,0,5,1.32,5.74,3.25.13.32.2.65.2.91,0,.91-.71,1.45-1.59,1.45-.74,0-1.18-.29-1.56-.96-.67-1.19-1.5-1.74-2.68-1.74-1.88,0-3.03,1.55-3.03,4.18s1.16,4.2,3.01,4.2c1.29,0,2.09-.63,2.67-1.6.5-.77.9-1.09,1.69-1.09.86,0,1.56.57,1.56,1.49,0,.29-.08.6-.24.96-.81,1.85-3.14,3.15-5.74,3.15-4.1,0-6.7-2.69-6.7-7.1Z"/>
      <path class="cls-2" d="M995.02,1799.06v-14.99c0-1.27.77-1.94,1.85-1.94s1.85.67,1.85,1.94v8.44h.05l4.93-4.94c.5-.52.91-.74,1.47-.74.95,0,1.65.7,1.65,1.61,0,.56-.17.9-.7,1.4l-3.47,3.28,3.8,4.84c.41.55.52.88.52,1.36,0,.99-.72,1.68-1.76,1.68-.79,0-1.23-.28-1.82-1.16l-3.49-4.62-1.18,1.09v2.75c0,1.27-.76,1.93-1.85,1.93s-1.85-.66-1.85-1.93Z"/>
      <path class="cls-2" d="M1007.8,1793.98c0-4.38,2.55-7.16,6.58-7.16s6.45,2.64,6.45,6.33c0,1.03-.58,1.61-1.61,1.61h-7.77v.17c0,2.02,1.22,3.34,3.1,3.34,1.36,0,2.25-.46,3.25-1.64.39-.41.72-.55,1.21-.55.8,0,1.45.51,1.45,1.36,0,.29-.09.6-.25.9-.9,1.68-3.01,2.67-5.64,2.67-4.25,0-6.75-2.63-6.75-7.03ZM1017.25,1792.49c-.08-1.78-1.22-2.93-2.84-2.93s-2.81,1.19-2.93,2.93h5.78Z"/>
      <path class="cls-2" d="M1022.73,1799.06v-10.36c0-1.18.72-1.87,1.79-1.87s1.75.69,1.75,1.87v.89h.08c.36-1.69,1.47-2.69,2.83-2.69.5,0,.89.11,1.16.34.36.28.53.74.53,1.37,0,.58-.18,1.03-.53,1.33s-.89.47-1.61.48c-1.69.03-2.29.98-2.29,2.59v6.04c0,1.23-.72,1.93-1.85,1.93s-1.85-.7-1.85-1.93Z"/>
      <path class="cls-2" d="M1037.4,1797.51c-.13-.33-.2-.69-.2-1.03,0-1.02.7-1.69,1.69-1.69.79,0,1.31.3,1.76,1.12.6,1.4,2.03,2.03,3.78,2.03,2.06,0,3.45-.99,3.45-2.34,0-1.21-.86-1.89-3.16-2.36l-1.94-.38c-3.66-.72-5.45-2.48-5.45-5.21,0-3.35,2.92-5.57,7-5.57,3.35,0,5.88,1.41,6.69,3.8.09.25.14.52.14.85,0,.91-.66,1.54-1.64,1.54-.86,0-1.4-.34-1.83-1.13-.61-1.38-1.79-1.96-3.36-1.96-1.89,0-3.15.89-3.15,2.23,0,1.13.88,1.83,3.05,2.26l1.93.39c3.88.77,5.56,2.34,5.56,5.12,0,3.58-2.81,5.84-7.38,5.84-3.78,0-6.21-1.51-6.94-3.52Z"/>
      <path class="cls-2" d="M1053.74,1803.64v-14.9c0-1.24.76-1.9,1.83-1.9s1.83.66,1.83,1.92v.74h.08c.74-1.6,2.25-2.59,4.21-2.59,3.45,0,5.57,2.63,5.57,7.02s-2.11,7.02-5.51,7.02c-1.98,0-3.5-.96-4.23-2.5h-.08v5.21c0,1.27-.76,1.93-1.85,1.93s-1.85-.66-1.85-1.93ZM1063.46,1793.92c0-2.46-1.17-4.05-3.02-4.05s-3.01,1.61-3.01,4.05,1.19,4.04,3.01,4.04,3.02-1.56,3.02-4.04Z"/>
      <path class="cls-2" d="M1068.63,1796.81c0-2.48,1.9-3.91,5.31-4.11l3.43-.2v-.9c0-1.27-.89-2.01-2.29-2.01-1.13,0-1.82.37-2.64,1.43-.41.46-.88.69-1.47.69-.9,0-1.55-.58-1.55-1.42,0-.29.06-.56.19-.84.63-1.62,2.82-2.63,5.64-2.63,3.49,0,5.76,1.8,5.76,4.54v7.76c0,1.23-.75,1.87-1.8,1.87s-1.7-.56-1.78-1.65v-.7h-.08c-.76,1.45-2.46,2.3-4.16,2.3-2.59,0-4.56-1.68-4.56-4.13ZM1077.37,1795.73v-.99l-2.87.18c-1.38.1-2.17.72-2.17,1.69,0,1.02.84,1.65,2.08,1.65,1.62,0,2.96-1.05,2.96-2.53Z"/>
      <path class="cls-2" d="M1085.55,1799.04l-2.74-9.48c-.14-.48-.2-.79-.2-1.14,0-.93.75-1.59,1.79-1.59.93,0,1.52.56,1.74,1.57l2.02,8.8h.08l2.11-8.67c.24-1.1.96-1.7,2.09-1.7s1.83.6,2.07,1.7l2.12,8.67h.08l2.03-8.82c.2-.99.8-1.55,1.71-1.55,1.03,0,1.75.65,1.75,1.57,0,.34-.06.65-.2,1.13l-2.74,9.5c-.38,1.35-1.09,1.96-2.37,1.96-1.36,0-2.08-.58-2.4-1.97l-2.07-7.92h-.08l-2.06,7.95c-.32,1.35-1.05,1.94-2.37,1.94s-1.96-.6-2.35-1.94Z"/>
      <path class="cls-2" d="M1103.87,1799.06v-10.36c0-1.16.67-1.87,1.79-1.87s1.85.71,1.85,1.88v.76h.08c.72-1.69,2.09-2.62,4.19-2.62,3.02,0,4.72,1.9,4.72,5.09v7.11c0,1.27-.77,1.93-1.85,1.93s-1.85-.66-1.85-1.93v-6.33c0-1.78-.84-2.79-2.5-2.79s-2.72,1.22-2.72,2.98v6.14c0,1.27-.76,1.93-1.85,1.93s-1.85-.66-1.85-1.93Z"/>
    </g>
  </g>
</svg>